<svg width="50" height="44" viewBox="0 0 50 44" fill="none" xmlns="http://www.w3.org/2000/svg">
<path fill-rule="evenodd" clip-rule="evenodd" d="M0 22C0 21.1666 0.329204 20.3674 0.91519 19.7781C1.50118 19.1888 2.29594 18.8577 3.12465 18.8577H39.3269L25.9096 5.371C25.3229 4.78096 24.9933 3.9807 24.9933 3.14626C24.9933 2.31182 25.3229 1.51156 25.9096 0.921519C26.4963 0.331481 27.2921 0 28.1219 0C28.9516 0 29.7474 0.331481 30.3341 0.921519L49.082 19.7753C49.373 20.0672 49.6039 20.4139 49.7614 20.7957C49.9189 21.1774 50 21.5867 50 22C50 22.4133 49.9189 22.8226 49.7614 23.2043C49.6039 23.5861 49.373 23.9329 49.082 24.2247L30.3341 43.0785C29.7474 43.6685 28.9516 44 28.1219 44C27.2921 44 26.4963 43.6685 25.9096 43.0785C25.3229 42.4884 24.9933 41.6882 24.9933 40.8537C24.9933 40.0193 25.3229 39.219 25.9096 38.629L39.3269 25.1423H3.12465C2.29594 25.1423 1.50118 24.8112 0.91519 24.2219C0.329204 23.6326 0 22.8334 0 22Z" fill="white"/>
</svg>
